# xmcd
#
# Track frame offsets:
#	150
#	15114
#	30136
#	47752
#	62734
#	80744
#	90367
#	109942
#	122768
#	137420
#	150168
#	162216
#
# Disc length: 2362 seconds
#
# Revision: 0
# Processed by: cddbd v1.5.1PL2 Copyright (c) Steve Scherf et al.
# Submitted via: dBpowerAMP V4.0
#
DISCID=7c09380c
DTITLE=Darren Busby - Sure Love
DYEAR=2005
DGENRE=Country
TTITLE0=Sure Love
TTITLE1=If I Could Find The Heart To Love Again
TTITLE2=Remind Me
TTITLE3=Lay Down Beside Me
TTITLE4=There'll Always Be You
TTITLE5=The Definition Of Love
TTITLE6=Just Cause I'm In Love With You
TTITLE7=When You Waltz In Here
TTITLE8=Gone Gone Gone
TTITLE9=That's The Thing With Memories
TTITLE10=I Know A Heartache
TTITLE11=In This LIfe
EXTD=
EXTT0=
EXTT1=
EXTT2=
EXTT3=
EXTT4=
EXTT5=
EXTT6=
EXTT7=
EXTT8=
EXTT9=
EXTT10=
EXTT11=
PLAYORDER=
